<?xml version="1.0" standalone="no"?>
<!DOCTYPE svg PUBLIC "-//W3C//DTD SVG 20010904//EN"
 "http://www.w3.org/TR/2001/REC-SVG-20010904/DTD/svg10.dtd">
<svg version="1.0" xmlns="http://www.w3.org/2000/svg"
 width="500.000000pt" height="500.000000pt" viewBox="0 0 500.000000 500.000000"
 preserveAspectRatio="xMidYMid meet">

<g transform="translate(0.000000,500.000000) scale(0.100000,-0.100000)"
fill="#000000" stroke="none">
<path d="M2240 4885 c-374 -45 -713 -168 -1024 -372 -334 -218 -626 -540 -810
-893 -181 -348 -261 -659 -273 -1060 -12 -425 74 -797 273 -1180 112 -214 229
-375 408 -559 242 -248 514 -431 821 -552 61 -24 111 -47 113 -51 2 -4 10 -4
18 -1 8 3 14 0 14 -5 0 -6 8 -10 18 -10 9 1 51 -8 92 -20 427 -120 958 -105
1374 38 386 133 677 319 961 611 182 188 302 355 417 584 132 261 198 481 244
810 29 213 11 560 -42 799 -74 331 -221 650 -428 926 -90 121 -283 320 -407
420 -427 348 -953 533 -1502 529 -89 -1 -209 -7 -267 -14z m583 -230 c697
-104 1300 -540 1617 -1169 106 -211 171 -412 210 -651 26 -155 28 -485 4 -644
-40 -279 -132 -543 -274 -792 l-51 -88 -52 20 c-29 12 -169 66 -312 120 -584
224 -886 368 -942 453 -31 46 -55 124 -56 186 -1 69 20 112 118 240 39 52 98
143 129 202 72 136 163 379 175 466 65 458 66 623 6 831 -45 155 -85 232 -190
363 -144 179 -313 300 -480 343 -246 64 -572 26 -745 -86 -142 -92 -310 -272
-395 -423 -19 -35 -51 -122 -74 -201 -48 -173 -58 -300 -36 -480 8 -66 22
-178 30 -250 17 -151 16 -146 84 -330 61 -164 151 -333 227 -427 30 -38 71
-95 91 -128 35 -59 36 -63 30 -134 -6 -83 -36 -161 -75 -199 -89 -85 -431
-241 -990 -452 l-193 -73 -20 31 c-51 82 -152 305 -193 427 -86 262 -109 427
-104 742 4 204 8 250 32 368 118 579 449 1075 932 1395 259 172 568 293 869
339 129 20 497 20 628 1z"/>
</g>
</svg>
